<svg xmlns="http://www.w3.org/2000/svg" xmlns:svg="http://www.w3.org/2000/svg" xmlns:xlink="http://www.w3.org/1999/xlink" version="1.0" height="1749pt" width="1519.9999999999998pt" viewBox="184.99999999999994 47.000000000000014 1527.9999999999998 1755" ><defs><style type="text/css">
            @font-face {
                font-family: 'lt_regular';
                src: url('https://app.creately.com/diagram/assets/fonts/lato/lt-regular-webfont.woff2') format('woff2'),
                    url('https://app.creately.com/diagram/assets/fonts/lato/lt-regular-webfont.woff') format('woff');
                font-weight: normal;
                font-style: normal;
            }
            @font-face {
                font-family: 'noto_regular';
                src: url('https://app.creately.com/diagram/assets/fonts/noto/noto-regular.woff') format('woff'),
                     url('https://app.creately.com/diagram/assets/fonts/noto/noto-regular.woff2') format('woff2');
                font-weight: normal;
                font-style: normal;
            }
        p {
            margin: 0;
        }
        </style></defs><defs><style>
            span{ display: inline-block; }
        </style></defs><g id="kSyabhe4uLI"><g transform="translate(189.99999999999994 50.000000000000114)"><rect x="0" y="0" width="210.00000000000003" height="59.99999999999994" fill="rgb(89,88,87)" stroke="#595857" stroke-width="2" stroke-linecap="round" stroke-linejoin="round" stroke-dasharray="0 0"/></g><g transform="translate(249.5, 69.00000000000009) rotate(0, 45.5, 11)" width="91" height="22"><text text-decoration="none" x="0" fill="rgb(255, 255, 255)" font-size="12pt" font-family="lt_regular"  y="17">JOB&#160;</text><text text-decoration="none" x="34" fill="rgb(255, 255, 255)" font-size="12pt" font-family="lt_regular"  y="17">SEEKER</text><text text-decoration="none" x="91" fill="#4b4b4b" font-size="10pt" font-family="noto_regular"  y="17"></text></g></g><g id="vNOElGouINP"><g transform="translate(650 50.00000000000006)"><rect x="0" y="0" width="210.00000000000003" height="59.99999999999994" fill="rgb(89,88,87)" stroke="#595857" stroke-width="2" stroke-linecap="round" stroke-linejoin="round" stroke-dasharray="0 0"/></g><g transform="translate(714, 69.00000000000003) rotate(0, 41, 11)" width="82" height="22"><text text-decoration="none" x="0" fill="rgb(255, 255, 255)" font-size="12pt" font-family="lt_regular"  y="17">EMPLOYEE</text><text text-decoration="none" x="83" fill="#4b4b4b" font-size="10pt" font-family="noto_regular"  y="17"></text></g></g><g id="Rxp7kG7qeHP"><g transform="translate(1130 50.000000000000114)"><rect x="0" y="0" width="210.00000000000003" height="59.99999999999994" fill="rgb(89,88,87)" stroke="#595857" stroke-width="2" stroke-linecap="round" stroke-linejoin="round" stroke-dasharray="0 0"/></g><g transform="translate(1201, 69.00000000000009) rotate(0, 34, 11)" width="68" height="22"><text text-decoration="none" x="0.5" fill="rgb(255, 255, 255)" font-size="12pt" font-family="lt_regular"  y="17">WEBSITE</text><text text-decoration="none" x="67.5" fill="#4b4b4b" font-size="10pt" font-family="noto_regular"  y="17"></text></g></g><g id="Dt21OEQQMPj"><g transform="translate(1499.9999999999998 50.000000000000014)"><rect x="0" y="0" width="210.00000000000006" height="59.99999999999996" fill="rgb(89,88,87)" stroke="#595857" stroke-width="2" stroke-linecap="round" stroke-linejoin="round" stroke-dasharray="0 0"/></g><g transform="translate(1540.4999999999998, 69) rotate(0, 64.5, 11)" width="129" height="22"><text text-decoration="none" x="0" fill="rgb(255, 255, 255)" font-size="12pt" font-family="lt_regular"  y="17">ADMINISTRATOR</text><text text-decoration="none" x="129" fill="#4b4b4b" font-size="10pt" font-family="noto_regular"  y="17"></text></g></g><g id="Hiq0aIhIOiW"><g transform="translate(280 249.99999999999994)"><rect x="0" y="0" width="30.000000000000306" height="90" fill="rgb(148,165,166)" stroke="#516263" stroke-width="2" stroke-linecap="round" stroke-linejoin="round" stroke-dasharray="0 0"/></g></g><g id="5GOfdbhQUu7"><g><path d="M 295,110 L 295,170 Q 295,170 295,180 Q 295.0000000000001,189.9999999999999 295.0000000000001,190 L 295,250" fill="none" stroke="#7E8C8D" stroke-width="2" stroke-linecap="round" stroke-linejoin="round" stroke-dasharray="3 3"/></g></g><g id="9MaAR7FyEUK"><g transform="translate(1220 249.99999999999997)"><rect x="0" y="0" width="30.000000000000306" height="90" fill="rgb(148,165,166)" stroke="#516263" stroke-width="2" stroke-linecap="round" stroke-linejoin="round" stroke-dasharray="0 0"/></g></g><g id="RIVfAzPT2RI"><g><path d="M 1235,110 L 1235,250" fill="none" stroke="#7E8C8D" stroke-width="2" stroke-linecap="round" stroke-linejoin="round" stroke-dasharray="3 3"/></g></g><g id="eznZvY0ySUb"><g><path d="M 295,250 Q 303.0000000000001,248 305.0000000000001,248 L 1207,248" fill="none" stroke="#7E7E7E" stroke-width="2" stroke-linecap="round" stroke-linejoin="round"/><path d="M 1207,248 L 1198.304347826087,242.25 L 1198.304347826087,253.75 Z" fill="rgb(126,126,126)" stroke="#7E7E7E" stroke-width="2" stroke-linecap="round" stroke-linejoin="round"/></g></g><g id="kEUEOMZlAUL"><g transform="translate(360 200.00000000000009)"><rect x="0" y="0" width="79.99999999999987" height="42" fill="rgba(255,255,255,0.01)" stroke="rgba(255,255,255,0.01)"/></g><g transform="translate(370, 210.00000000000009) rotate(0, 0, 0)" width="57" height="22"><text text-decoration="none" x="0" fill="rgb(75, 75, 75)" font-weight="bold" font-size="12pt" font-family="lt_regular"  y="17">Register</text><text text-decoration="none" x="57" fill="#4b4b4b" font-size="10pt" font-family="noto_regular"  y="17"></text></g></g><g id="C69vbYva36O"><g transform="translate(740 400.00000000000006)"><rect x="0" y="0" width="30.000000000000306" height="90" fill="rgb(148,165,166)" stroke="#516263" stroke-width="2" stroke-linecap="round" stroke-linejoin="round" stroke-dasharray="0 0"/></g></g><g id="ziq9fn3TfFI"><g><path d="M 755,400 L 755.0000000000002,265 Q 755.0000000000002,264.9999999999998 755,255 Q 755,245.00000000000006 755,252 L 755,110" fill="none" stroke="#7E8C8D" stroke-width="2" stroke-linecap="round" stroke-linejoin="round" stroke-dasharray="3 3"/></g></g><g id="BrXCxqzTtAx"><g><path d="M 755,400 Q 765,400 765.0000000000002,400 L 1200,400" fill="none" stroke="#7E7E7E" stroke-width="2" stroke-linecap="round" stroke-linejoin="round"/><path d="M 1200,400 L 1191.304347826087,394.25 L 1191.304347826087,405.75 Z" fill="rgb(126,126,126)" stroke="#7E7E7E" stroke-width="2" stroke-linecap="round" stroke-linejoin="round"/></g></g><g id="C5fzTFYolzP"><g transform="translate(790 360)"><rect x="0" y="0" width="79.99999999999987" height="42" fill="rgba(255,255,255,0.01)" stroke="rgba(255,255,255,0.01)"/></g><g transform="translate(800, 370) rotate(0, 0, 0)" width="57" height="22"><text text-decoration="none" x="0" fill="rgb(75, 75, 75)" font-weight="bold" font-size="12pt" font-family="lt_regular"  y="17">Register</text><text text-decoration="none" x="57" fill="#4b4b4b" font-size="10pt" font-family="noto_regular"  y="17"></text></g></g><g id="uNjkQj2Znaj"><g transform="translate(279.99999999999994 550)"><rect x="0" y="0" width="30.000000000000306" height="90" fill="rgb(148,165,166)" stroke="#516263" stroke-width="2" stroke-linecap="round" stroke-linejoin="round" stroke-dasharray="0 0"/></g></g><g id="okcG5pxmEY4"><g><path d="M 295,340 L 295,550" fill="none" stroke="#7E8C8D" stroke-width="2" stroke-linecap="round" stroke-linejoin="round" stroke-dasharray="3 3"/></g></g><g id="pie9quA1sUE"><g transform="translate(359.99999999999994 500.0000000000002)"><rect x="0" y="0" width="79.99999999999987" height="42" fill="rgba(255,255,255,0.01)" stroke="rgba(255,255,255,0.01)"/></g><g transform="translate(369.99999999999994, 510.0000000000002) rotate(0, 0, 0)" width="38" height="22"><text text-decoration="none" x="0" fill="rgb(75, 75, 75)" font-weight="bold" font-size="12pt" font-family="lt_regular"  y="17">Login</text><text text-decoration="none" x="38" fill="#4b4b4b" font-size="10pt" font-family="noto_regular"  y="17"></text></g></g><g id="2hLMiQq7Vsp"><g transform="translate(1220 400)"><rect x="0" y="0" width="30.000000000000306" height="90" fill="rgb(148,165,166)" stroke="#516263" stroke-width="2" stroke-linecap="round" stroke-linejoin="round" stroke-dasharray="0 0"/></g></g><g id="ArDjj4qtMZL"><g transform="translate(1220 550)"><rect x="0" y="0" width="30.000000000000306" height="90" fill="rgb(148,165,166)" stroke="#516263" stroke-width="2" stroke-linecap="round" stroke-linejoin="round" stroke-dasharray="0 0"/></g></g><g id="qpOhdmva4sJ"><g><path d="M 1235,340 L 1235,400" fill="none" stroke="#7E8C8D" stroke-width="2" stroke-linecap="round" stroke-linejoin="round" stroke-dasharray="3 3"/></g></g><g id="EXdILBwi0hU"><g><path d="M 1235,490 L 1235,550" fill="none" stroke="#7E8C8D" stroke-width="2" stroke-linecap="round" stroke-linejoin="round" stroke-dasharray="3 3"/></g></g><g id="4qSDDosfHNW"><g><path d="M 295,550 Q 303.0000000000001,548 305.0000000000001,548 L 1197,548" fill="none" stroke="#7E7E7E" stroke-width="2" stroke-linecap="round" stroke-linejoin="round"/><path d="M 1197,548 L 1188.304347826087,542.25 L 1188.304347826087,553.75 Z" fill="rgb(126,126,126)" stroke="#7E7E7E" stroke-width="2" stroke-linecap="round" stroke-linejoin="round"/></g></g><g id="a1L4NKjtH5j"><g transform="translate(740 699.9999999999999)"><rect x="0" y="0" width="30.000000000000313" height="90.00000000000004" fill="rgb(148,165,166)" stroke="#516263" stroke-width="2" stroke-linecap="round" stroke-linejoin="round" stroke-dasharray="0 0"/></g></g><g id="8neN7C8Ggyd"><g><path d="M 755,700 L 755,490" fill="none" stroke="#7E8C8D" stroke-width="2" stroke-linecap="round" stroke-linejoin="round" stroke-dasharray="3 3"/></g></g><g id="EjBtVVKFgRe"><g transform="translate(1590 700)"><rect x="0" y="0" width="30.000000000000313" height="90.00000000000006" fill="rgb(148,165,166)" stroke="#516263" stroke-width="2" stroke-linecap="round" stroke-linejoin="round" stroke-dasharray="0 0"/></g></g><g id="rYqm8bR4ToW"><g><path d="M 1605,110 L 1604.9999999999998,395 Q 1604.9999999999998,395.0000000000002 1605,405 Q 1605,415 1605,415 L 1605,700" fill="none" stroke="#7E8C8D" stroke-width="2" stroke-linecap="round" stroke-linejoin="round" stroke-dasharray="3 3"/></g></g><g id="cnk2E96WPAy"><g transform="translate(790 660.0000000000003)"><rect x="0" y="0" width="179.99999999999983" height="42" fill="rgba(255,255,255,0.01)" stroke="rgba(255,255,255,0.01)"/></g><g transform="translate(800, 670.0000000000003) rotate(0, 0, 0)" width="119" height="22"><text text-decoration="none" x="0" fill="rgb(75, 75, 75)" font-weight="bold" font-size="12pt" font-family="lt_regular"  y="17">Approve&#160;</text><text text-decoration="none" x="0" fill="rgb(75, 75, 75)" font-weight="bold" font-size="12pt" font-family="lt_regular"  y="39">vacancy</text><text text-decoration="none" x="57" fill="#4b4b4b" font-size="10pt" font-family="noto_regular"  y="39"></text></g></g><g id="tFgxxbKV5TC"><g><path d="M 1605,700 Q 1596,699 1595,699 L 785,699" fill="none" stroke="#7E7E7E" stroke-width="2" stroke-linecap="round" stroke-linejoin="round"/><path d="M 785,699 L 793.695652173913,704.75 L 793.695652173913,693.25 Z" fill="rgb(126,126,126)" stroke="#7E7E7E" stroke-width="2" stroke-linecap="round" stroke-linejoin="round"/></g></g><g id="8qwpNUK1DR2"><g transform="translate(740 850.0000000000002)"><rect x="0" y="0" width="30.000000000000316" height="90.00000000000011" fill="rgb(148,165,166)" stroke="#516263" stroke-width="2" stroke-linecap="round" stroke-linejoin="round" stroke-dasharray="0 0"/></g></g><g id="n1ljJccLksD"><g><path d="M 755,790 L 755,850" fill="none" stroke="#7E8C8D" stroke-width="2" stroke-linecap="round" stroke-linejoin="round" stroke-dasharray="3 3"/></g></g><g id="OdCtPyfyki5"><g transform="translate(1220 850.0000000000001)"><rect x="0" y="0" width="30.000000000000316" height="90.0000000000001" fill="rgb(148,165,166)" stroke="#516263" stroke-width="2" stroke-linecap="round" stroke-linejoin="round" stroke-dasharray="0 0"/></g></g><g id="dZLVQqEVftc"><g><path d="M 1235,850 L 1235,640" fill="none" stroke="#7E8C8D" stroke-width="2" stroke-linecap="round" stroke-linejoin="round" stroke-dasharray="3 3"/></g></g><g id="jFnWLwzFkUk"><g><path d="M 755,850 Q 764.0000000000002,849 765.0000000000002,849 L 1199,849" fill="none" stroke="#7E7E7E" stroke-width="2" stroke-linecap="round" stroke-linejoin="round"/><path d="M 1199,849 L 1190.304347826087,843.25 L 1190.304347826087,854.75 Z" fill="rgb(126,126,126)" stroke="#7E7E7E" stroke-width="2" stroke-linecap="round" stroke-linejoin="round"/></g></g><g id="YXOmvinxanh"><g transform="translate(790 810)"><rect x="0" y="0" width="179.99999999999983" height="42" fill="rgba(255,255,255,0.01)" stroke="rgba(255,255,255,0.01)"/></g><g transform="translate(800, 820) rotate(0, 0, 0)" width="111" height="22"><text text-decoration="none" x="0" fill="rgb(75, 75, 75)" font-weight="bold" font-size="12pt" font-family="lt_regular"  y="17">Put&#160;</text><text text-decoration="none" x="29" fill="rgb(75, 75, 75)" font-weight="bold" font-size="12pt" font-family="lt_regular"  y="17">the&#160;</text><text text-decoration="none" x="0" fill="rgb(75, 75, 75)" font-weight="bold" font-size="12pt" font-family="lt_regular"  y="39">vacancy</text><text text-decoration="none" x="57" fill="#4b4b4b" font-size="10pt" font-family="noto_regular"  y="39"></text></g></g><g id="PAkZFp2fbMl"><g transform="translate(280.00000000000006 1000.0000000000001)"><rect x="0" y="0" width="30.000000000000316" height="90.0000000000001" fill="rgb(148,165,166)" stroke="#516263" stroke-width="2" stroke-linecap="round" stroke-linejoin="round" stroke-dasharray="0 0"/></g></g><g id="0izLl8gPWb4"><g><path d="M 295,1000 L 295.0000000000002,830 Q 295.0000000000002,829.9999999999998 295,820 Q 295.0000000000001,810.0000000000001 295.0000000000001,810 L 295,640" fill="none" stroke="#7E8C8D" stroke-width="2" stroke-linecap="round" stroke-linejoin="round" stroke-dasharray="3 3"/></g></g><g id="Ia0CpNSl4z1"><g transform="translate(1220 1000)"><rect x="0" y="0" width="30.000000000000316" height="90.0000000000001" fill="rgb(148,165,166)" stroke="#516263" stroke-width="2" stroke-linecap="round" stroke-linejoin="round" stroke-dasharray="0 0"/></g></g><g id="CQ3MqfGaHw9"><g><path d="M 1235,1000 L 1235,940" fill="none" stroke="#7E8C8D" stroke-width="2" stroke-linecap="round" stroke-linejoin="round" stroke-dasharray="3 3"/></g></g><g id="hgbEpkKdE85"><g><path d="M 295,1000 Q 304.0000000000002,999 305.0000000000002,999 L 1197,999" fill="none" stroke="#7E7E7E" stroke-width="2" stroke-linecap="round" stroke-linejoin="round"/><path d="M 1197,999 L 1188.304347826087,993.25 L 1188.304347826087,1004.75 Z" fill="rgb(126,126,126)" stroke="#7E7E7E" stroke-width="2" stroke-linecap="round" stroke-linejoin="round"/></g></g><g id="rwJqKNcehpW"><g transform="translate(340 950)"><rect x="0" y="0" width="179.9999999999998" height="42" fill="rgba(255,255,255,0.01)" stroke="rgba(255,255,255,0.01)"/></g><g transform="translate(350, 960) rotate(0, 0, 0)" width="76" height="22"><text text-decoration="none" x="0" fill="rgb(75, 75, 75)" font-weight="bold" font-size="12pt" font-family="lt_regular"  y="17">Upload&#160;</text><text text-decoration="none" x="0" fill="rgb(75, 75, 75)" font-weight="bold" font-size="12pt" font-family="lt_regular"  y="39">CV</text><text text-decoration="none" x="22" fill="#4b4b4b" font-size="10pt" font-family="noto_regular"  y="39"></text></g></g><g id="czgMPLIvg9E"><g transform="translate(1220 1150)"><rect x="0" y="0" width="30.000000000000316" height="90.0000000000001" fill="rgb(148,165,166)" stroke="#516263" stroke-width="2" stroke-linecap="round" stroke-linejoin="round" stroke-dasharray="0 0"/></g></g><g id="uMXHpOKxzxv"><g transform="translate(740.0000000000002 1150)"><rect x="0" y="0" width="30.000000000000316" height="90.0000000000001" fill="rgb(148,165,166)" stroke="#516263" stroke-width="2" stroke-linecap="round" stroke-linejoin="round" stroke-dasharray="0 0"/></g></g><g id="7UhSA4PQwLf"><g><path d="M 755,1150 L 755.0000000000005,1055.0000000000002 Q 755.0000000000005,1054.9999999999998 755,1045 Q 755.0000000000002,1035.0000000000005 755.0000000000002,1035.0000000000002 L 755,940" fill="none" stroke="#7E8C8D" stroke-width="2" stroke-linecap="round" stroke-linejoin="round" stroke-dasharray="3 3"/></g></g><g id="oRhfSomnu1K"><g><path d="M 1235,1150 L 1235,1090" fill="none" stroke="#7E8C8D" stroke-width="2" stroke-linecap="round" stroke-linejoin="round" stroke-dasharray="3 3"/></g></g><g id="6zyiLIfRRaq"><g><path d="M 755,1150 Q 764.0000000000005,1149 765.0000000000005,1149 L 1200,1149" fill="none" stroke="#7E7E7E" stroke-width="2" stroke-linecap="round" stroke-linejoin="round"/><path d="M 1200,1149 L 1191.304347826087,1143.25 L 1191.304347826087,1154.75 Z" fill="rgb(126,126,126)" stroke="#7E7E7E" stroke-width="2" stroke-linecap="round" stroke-linejoin="round"/></g></g><g id="EEALdvz2Zxw"><g transform="translate(1220 1301.0000000000002)"><rect x="0" y="0" width="30.000000000000316" height="90.0000000000001" fill="rgb(148,165,166)" stroke="#516263" stroke-width="2" stroke-linecap="round" stroke-linejoin="round" stroke-dasharray="0 0"/></g></g><g id="eHEkOWVuoGc"><g transform="translate(740.0000000000002 1301.0000000000002)"><rect x="0" y="0" width="30.000000000000316" height="90.0000000000001" fill="rgb(148,165,166)" stroke="#516263" stroke-width="2" stroke-linecap="round" stroke-linejoin="round" stroke-dasharray="0 0"/></g></g><g id="dC6REaRLxhn"><g transform="translate(1220 1451)"><rect x="0" y="0" width="30.000000000000316" height="90.0000000000001" fill="rgb(148,165,166)" stroke="#516263" stroke-width="2" stroke-linecap="round" stroke-linejoin="round" stroke-dasharray="0 0"/></g></g><g id="hjfWJkF7VuD"><g transform="translate(740.0000000000002 1451)"><rect x="0" y="0" width="30.000000000000316" height="90.0000000000001" fill="rgb(148,165,166)" stroke="#516263" stroke-width="2" stroke-linecap="round" stroke-linejoin="round" stroke-dasharray="0 0"/></g></g><g id="dT1wccMesf2"><g><path d="M 755,1451 Q 764.0000000000005,1450 765.0000000000005,1450 L 1200,1450" fill="none" stroke="#7E7E7E" stroke-width="2" stroke-linecap="round" stroke-linejoin="round"/><path d="M 1200,1450 L 1191.304347826087,1444.25 L 1191.304347826087,1455.75 Z" fill="rgb(126,126,126)" stroke="#7E7E7E" stroke-width="2" stroke-linecap="round" stroke-linejoin="round"/></g></g><g id="VK4jZRpXYuL"><g><path d="M 1235,1301 Q 1226,1300 1225,1300 L 787,1300" fill="none" stroke="#7E7E7E" stroke-width="2" stroke-linecap="round" stroke-linejoin="round"/><path d="M 787,1300 L 795.695652173913,1305.75 L 795.695652173913,1294.25 Z" fill="rgb(126,126,126)" stroke="#7E7E7E" stroke-width="2" stroke-linecap="round" stroke-linejoin="round"/></g></g><g id="fzfofXa76iQ"><g><path d="M 755,1301 L 755,1240" fill="none" stroke="#7E8C8D" stroke-width="2" stroke-linecap="round" stroke-linejoin="round" stroke-dasharray="3 3"/></g></g><g id="HRP4OOOoMtl"><g><path d="M 755,1451 L 755,1391" fill="none" stroke="#7E8C8D" stroke-width="2" stroke-linecap="round" stroke-linejoin="round" stroke-dasharray="3 3"/></g></g><g id="fxQk7DV0XxJ"><g><path d="M 1235,1451 L 1235,1391" fill="none" stroke="#7E8C8D" stroke-width="2" stroke-linecap="round" stroke-linejoin="round" stroke-dasharray="3 3"/></g></g><g id="CYZ4cc2QWQS"><g><path d="M 1235,1301 L 1235,1240" fill="none" stroke="#7E8C8D" stroke-width="2" stroke-linecap="round" stroke-linejoin="round" stroke-dasharray="3 3"/></g></g><g id="RKHiYYcEpHF"><g transform="translate(740.0000000000002 1600.0000000000002)"><rect x="0" y="0" width="30.000000000000316" height="90.0000000000001" fill="rgb(148,165,166)" stroke="#516263" stroke-width="2" stroke-linecap="round" stroke-linejoin="round" stroke-dasharray="0 0"/></g></g><g id="RDVxmiMhAyP"><g transform="translate(280 1600)"><rect x="0" y="0" width="30.000000000000316" height="90.0000000000001" fill="rgb(148,165,166)" stroke="#516263" stroke-width="2" stroke-linecap="round" stroke-linejoin="round" stroke-dasharray="0 0"/></g></g><g id="tPrg2eWwD4D"><g><path d="M 755,1600 Q 748.8285704659546,1596.168837018391 745.0000008827219,1596.1672283615642 L 347,1596" fill="none" stroke="#7E7E7E" stroke-width="2" stroke-linecap="round" stroke-linejoin="round"/><path d="M 347,1596 L 355.69565217391306,1601.75 L 355.69565217391306,1590.25 Z" fill="rgb(126,126,126)" stroke="#7E7E7E" stroke-width="2" stroke-linecap="round" stroke-linejoin="round"/></g></g><g id="PVqKAuzwPA3"><g><path d="M 295,1090 L 295,1345 Q 295.00000000000017,1354.9999999999998 295.00000000000017,1355 L 295,1600" fill="none" stroke="#7E8C8D" stroke-width="2" stroke-linecap="round" stroke-linejoin="round" stroke-dasharray="3 3"/></g></g><g id="l9mT5bThWIy"><g><path d="M 755,1600 L 755,1541" fill="none" stroke="#7E8C8D" stroke-width="2" stroke-linecap="round" stroke-linejoin="round" stroke-dasharray="3 3"/></g></g><g id="jauyUyY6Xp4"><g transform="translate(790.0000000000001 1100)"><rect x="0" y="0" width="179.9999999999998" height="42" fill="rgba(255,255,255,0.01)" stroke="rgba(255,255,255,0.01)"/></g><g transform="translate(800.0000000000001, 1110) rotate(0, 0, 0)" width="44" height="22"><text text-decoration="none" x="0" fill="rgb(75, 75, 75)" font-weight="bold" font-size="12pt" font-family="lt_regular"  y="17">Notify</text><text text-decoration="none" x="45" fill="#4b4b4b" font-size="10pt" font-family="noto_regular"  y="17"></text></g></g><g id="IrGeUWvbPQg"><g transform="translate(1080 1250)"><rect x="0" y="0" width="179.9999999999998" height="42" fill="rgba(255,255,255,0.01)" stroke="rgba(255,255,255,0.01)"/></g><g transform="translate(1090, 1260) rotate(0, 0, 0)" width="98" height="22"><text text-decoration="none" x="0" fill="rgb(75, 75, 75)" font-weight="bold" font-size="12pt" font-family="lt_regular"  y="17">Download&#160;</text><text text-decoration="none" x="0" fill="rgb(75, 75, 75)" font-weight="bold" font-size="12pt" font-family="lt_regular"  y="39">CV</text><text text-decoration="none" x="22" fill="#4b4b4b" font-size="10pt" font-family="noto_regular"  y="39"></text></g></g><g id="rVNBAWysGjC"><g transform="translate(790.0000000000001 1400)"><rect x="0" y="0" width="179.9999999999998" height="42" fill="rgba(255,255,255,0.01)" stroke="rgba(255,255,255,0.01)"/></g><g transform="translate(800.0000000000001, 1410) rotate(0, 0, 0)" width="159" height="22"><text text-decoration="none" x="0" fill="rgb(75, 75, 75)" font-weight="bold" font-size="12pt" font-family="lt_regular"  y="17">Checking&#160;</text><text text-decoration="none" x="0" fill="rgb(75, 75, 75)" font-weight="bold" font-size="12pt" font-family="lt_regular"  y="39">Qualification</text><text text-decoration="none" x="91" fill="#4b4b4b" font-size="10pt" font-family="noto_regular"  y="39"></text></g></g><g id="3vfR0woAlFM"><g transform="translate(620 1550)"><rect x="0" y="0" width="119.99999999999997" height="64" fill="rgba(255,255,255,0.01)" stroke="rgba(255,255,255,0.01)"/></g><g transform="translate(630, 1560) rotate(0, 0, 0)" width="78" height="22"><text text-decoration="none" x="0" fill="rgb(75, 75, 75)" font-weight="bold" font-size="12pt" font-family="lt_regular"  y="17">Send&#160;</text><text text-decoration="none" x="39" fill="rgb(75, 75, 75)" font-weight="bold" font-size="12pt" font-family="lt_regular"  y="17">Reply</text><text text-decoration="none" x="78" fill="#4b4b4b" font-size="10pt" font-family="noto_regular"  y="17"></text></g></g><g id="u9jdEJQwoWb"><g><path d="M 295,1690 L 295.0000000000001,1734.363505685638 Q 295.0000000000001,1734.7270113712761 295,1744 Q 295.3844851692059,1753.7733529286982 295.3794711770761,1754.3631443449517 L 295,1799" fill="none" stroke="#7E8C8D" stroke-width="2" stroke-linecap="round" stroke-linejoin="round" stroke-dasharray="3 3"/></g></g><g id="eGNnMbDvonP"><g><path d="M 755,1690 L 755.0000000000003,1734.3635056856383 Q 755.0000000000003,1734.7270113712766 755,1744 Q 754.7330155465629,1753.8768805966756 754.7358937740148,1754.3633306476484 L 755,1799" fill="none" stroke="#7E8C8D" stroke-width="2" stroke-linecap="round" stroke-linejoin="round" stroke-dasharray="3 3"/></g></g><g id="oW67dbPKCEK"><g><path d="M 1235,1541 L 1235,1659.8804197000727 Q 1235,1660 1235,1670 Q 1235.1984053324522,1679.6347222666056 1235.1979969646159,1679.8804058860628 L 1235,1799" fill="none" stroke="#7E8C8D" stroke-width="2" stroke-linecap="round" stroke-linejoin="round" stroke-dasharray="3 3"/></g></g><g id="dfbkxpGTaXb"><g><path d="M 1605,790 L 1605,1281.5657407970352 Q 1605,1282.655961442299 1604,1292 Q 1602.087028905474,1299.6054815433167 1602.0866831391604,1301.5657406414714 L 1602,1793" fill="none" stroke="#7E8C8D" stroke-width="2" stroke-linecap="round" stroke-linejoin="round" stroke-dasharray="3 3"/></g></g></svg>